<svg width="197" height="229" viewBox="0 0 197 229" fill="none" xmlns="http://www.w3.org/2000/svg">
<path d="M139.667 0H29.8917V100.703H44.6658V14.7705H124.892V71.1618H181.355V214.287H124.892V229H196.071V56.4485V56.3913V56.4485L139.667 0ZM139.609 56.3913V20.839L175.227 56.3913H139.609ZM0 114.5V229H110.118V114.5H0ZM95.3443 210.222L68.0295 182.914L49.0179 201.921L37.5078 190.413L14.6595 213.256V129.27H95.2871V210.222H95.3443ZM81.83 161.96C81.83 166.311 78.2797 169.861 73.9276 169.861C69.5756 169.861 66.0252 166.311 66.0252 161.96C66.0252 157.609 69.5756 154.06 73.9276 154.06C78.2797 154.117 81.83 157.609 81.83 161.96Z" fill="white"/>
</svg>
